 <svg
      xmlns="http://www.w3.org/2000/svg"
      width="100mm"
      height="100mm"
      version="1.1"
      viewBox="0 0 100 100"
    >
      <g transform="translate(-43.845 -67.946)">
        <path
          fill="#fea"
          strokeWidth="0.265"
          d="M43.284 67.946H143.284V167.946H43.284z"
        ></path>
        <path
          fill="#4d4d4d"
          strokeWidth="0.242"
          d="M59.427 83.722H125.273V87.69099999999999H59.427z"
        ></path>
        <g>
          <path
            fill="#4d4d4d"
            strokeWidth="0.145"
            d="M81.854 102.604H105.696V106.573H81.854z"
          ></path>
          <path
            fill="#ececec"
            strokeWidth="0.158"
            d="M107.141 102.604H135.192V106.573H107.141z"
          ></path>
          <path
            fill="#ececec"
            strokeWidth="0.156"
            d="M52.777 102.604H80.266V106.573H52.777z"
          ></path>
        </g>
        <g transform="translate(0 .184)">
          <path
            fill="#ececec"
            strokeWidth="0.108"
            d="M52.777 108.724H65.86V112.693H52.777z"
          ></path>
          <path
            fill="#ececec"
            strokeWidth="0.218"
            d="M81.884 108.724H135.192V112.693H81.884z"
          ></path>
          <path
            fill="#4d4d4d"
            strokeWidth="0.106"
            d="M67.63 108.724H80.246V112.693H67.63z"
          ></path>
        </g>
        <g transform="translate(0 .138)">
          <path
            fill="#ececec"
            strokeWidth="0.165"
            d="M52.777 115.074H83.5V119.04299999999999H52.777z"
          ></path>
          <path
            fill="#ececec"
            strokeWidth="0.173"
            d="M101.341 115.074H135.191V119.04299999999999H101.341z"
          ></path>
          <path
            fill="#4d4d4d"
            strokeWidth="0.119"
            d="M84.559 115.074H100.538V119.04299999999999H84.559z"
          ></path>
        </g>
        <g transform="translate(0 .092)">
          <path
            fill="#ececec"
            strokeWidth="0.234"
            d="M73.278 121.424H135.192V125.393H73.278z"
          ></path>
          <path
            fill="#4d4d4d"
            strokeWidth="0.128"
            d="M52.777 121.424H71.22V125.393H52.777z"
          ></path>
        </g>
        <g transform="translate(0 .046)">
          <path
            fill="#ececec"
            strokeWidth="0.209"
            d="M52.777 127.774H101.741V131.743H52.777z"
          ></path>
          <path
            fill="#ececec"
            strokeWidth="0.102"
            d="M123.418 127.774H135.192V131.743H123.418z"
          ></path>
          <path
            fill="#4d4d4d"
            strokeWidth="0.135"
            d="M102.271 127.774H122.839V131.743H102.271z"
          ></path>
        </g>
        <g>
          <path
            fill="#ececec"
            strokeWidth="0.078"
            d="M52.777 134.123H59.646V138.09199999999998H52.777z"
          ></path>
          <path
            fill="#ececec"
            strokeWidth="0.188"
            d="M74.833 134.123H114.577V138.09199999999998H74.833z"
          ></path>
          <path
            fill="#4d4d4d"
            strokeWidth="0.108"
            d="M60.901 134.123H74.07900000000001V138.09199999999998H60.901z"
          ></path>
          <path
            fill="#4d4d4d"
            strokeWidth="0.127"
            d="M117.15 134.123H135.192V138.09199999999998H117.15z"
          ></path>
        </g>
      </g>
    </svg>