    <svg
      xmlns="http://www.w3.org/2000/svg"
      width="100mm"
      height="100mm"
      version="1.1"
      viewBox="0 0 100 100"
    >
      <defs>
        <symbol>
          <path strokeWidth="0.529" d="M9.26 9.26h21.167L19.844 27.781z"></path>
        </symbol>
        <symbol>
          <path
            strokeWidth="0.529"
            d="M9.26 30.427l10.584-18.52 10.583 18.52z"
          ></path>
        </symbol>
      </defs>
      <g transform="translate(-43.845 -67.946)">
        <path
          fill="#fea"
          strokeWidth="0.265"
          d="M43.019 67.946H143.019V167.946H43.019z"
        ></path>
        <g transform="translate(-4.101 .265)">
          <rect
            width="27.992"
            height="21.08"
            x="53.928"
            y="80.451"
            fill="#fea"
            stroke="#b3b3b3"
            strokeDasharray="none"
            strokeMiterlimit="4"
            strokeWidth="0.85"
            ry="0.664"
          ></rect>
          <path
            fill="#333"
            strokeWidth="0.102"
            d="M56.252 83.714H75.518V86.118H56.252z"
          ></path>
          <path
            fill="#333"
            strokeWidth="0.11"
            d="M56.252 89.006H78.693V91.41H56.252z"
          ></path>
          <path
            fill="#fff"
            stroke="#333"
            strokeWidth="0.134"
            d="M56.407 -97.715H78.848V-94.12H56.407z"
            transform="scale(1 -1)"
          ></path>
          <path
            fill="#000"
            stroke="#333"
            strokeDasharray="none"
            strokeDashoffset="0"
            strokeMiterlimit="4"
            strokeWidth="0"
            d="M57.52 94.777H57.945V97.191H57.52z"
          ></path>
        </g>
        <g>
          <rect
            width="27.992"
            height="21.08"
            x="80.161"
            y="80.715"
            fill="#fea"
            stroke="#b3b3b3"
            strokeDasharray="none"
            strokeMiterlimit="4"
            strokeWidth="0.85"
            ry="0.664"
          ></rect>
          <path
            fill="#333"
            strokeWidth="0.102"
            d="M82.485 83.979H101.751V86.383H82.485z"
          ></path>
          <path
            fill="#333"
            strokeWidth="0.09"
            d="M82.485 89.27H97.386V91.67399999999999H82.485z"
          ></path>
          <path
            fill="#fff"
            stroke="#333"
            strokeWidth="0.134"
            d="M82.64 -97.979H105.081V-94.384H82.64z"
            transform="scale(1 -1)"
          ></path>
          <path
            fill="#000"
            stroke="#333"
            strokeDasharray="none"
            strokeDashoffset="0"
            strokeMiterlimit="4"
            strokeWidth="0"
            d="M83.753 95.041H84.178V97.455H83.753z"
          ></path>
        </g>
        <g>
          <rect
            width="27.992"
            height="21.08"
            x="110.495"
            y="80.715"
            fill="#fea"
            stroke="#b3b3b3"
            strokeDasharray="none"
            strokeMiterlimit="4"
            strokeWidth="0.85"
            ry="0.664"
          ></rect>
          <path
            fill="#333"
            strokeWidth="0.079"
            d="M112.819 83.979H124.28V86.383H112.819z"
          ></path>
          <path
            fill="#333"
            strokeWidth="0.058"
            d="M112.819 89.27H118.989V91.67399999999999H112.819z"
          ></path>
          <path
            fill="#fff"
            stroke="#333"
            strokeWidth="0.134"
            d="M112.974 -97.979H135.415V-94.384H112.974z"
            transform="scale(1 -1)"
          ></path>
          <path
            fill="#000"
            stroke="#333"
            strokeDasharray="none"
            strokeDashoffset="0"
            strokeMiterlimit="4"
            strokeWidth="0"
            d="M114.087 95.041H114.512V97.455H114.087z"
          ></path>
        </g>
        <g transform="translate(-30.334 25.268)">
          <rect
            width="27.992"
            height="21.08"
            x="80.161"
            y="80.715"
            fill="#fea"
            stroke="#b3b3b3"
            strokeDasharray="none"
            strokeMiterlimit="4"
            strokeWidth="0.85"
            ry="0.664"
          ></rect>
          <path
            fill="#333"
            strokeWidth="0.102"
            d="M82.485 83.979H101.751V86.383H82.485z"
          ></path>
          <path
            fill="#333"
            strokeWidth="0.09"
            d="M82.485 89.27H97.386V91.67399999999999H82.485z"
          ></path>
          <path
            fill="#fff"
            stroke="#333"
            strokeWidth="0.134"
            d="M82.64 -97.979H105.081V-94.384H82.64z"
            transform="scale(1 -1)"
          ></path>
          <path
            fill="#000"
            stroke="#333"
            strokeDasharray="none"
            strokeDashoffset="0"
            strokeMiterlimit="4"
            strokeWidth="0"
            d="M83.753 95.041H84.178V97.455H83.753z"
          ></path>
        </g>
        <g transform="translate(26.233 25.532)">
          <rect
            width="27.992"
            height="21.08"
            x="53.928"
            y="80.451"
            fill="#fea"
            stroke="#b3b3b3"
            strokeDasharray="none"
            strokeMiterlimit="4"
            strokeWidth="0.85"
            ry="0.664"
          ></rect>
          <path
            fill="#333"
            strokeWidth="0.102"
            d="M56.252 83.714H75.518V86.118H56.252z"
          ></path>
          <path
            fill="#333"
            strokeWidth="0.11"
            d="M56.252 89.006H78.693V91.41H56.252z"
          ></path>
          <path
            fill="#fff"
            stroke="#333"
            strokeWidth="0.134"
            d="M56.407 -97.715H78.848V-94.12H56.407z"
            transform="scale(1 -1)"
          ></path>
          <path
            fill="#000"
            stroke="#333"
            strokeDasharray="none"
            strokeDashoffset="0"
            strokeMiterlimit="4"
            strokeWidth="0"
            d="M57.52 94.777H57.945V97.191H57.52z"
          ></path>
        </g>
      </g>
    </svg>