<svg
      xmlns="http://www.w3.org/2000/svg"
      xmlnsXlink="http://www.w3.org/1999/xlink"
      width="100mm"
      height="100mm"
      version="1.1"
      viewBox="0 0 100 100"
    >
      <defs>
        <symbol>
          <path strokeWidth="0.529" d="M9.26 9.26h21.167L19.844 27.781z"></path>
        </symbol>
        <symbol id="Extract">
          <path
            strokeWidth="0.529"
            d="M9.26 30.427l10.584-18.52 10.583 18.52z"
          ></path>
        </symbol>
      </defs>
      <g transform="translate(-43.845 -67.946)">
        <path
          fill="#fea"
          strokeWidth="0.265"
          d="M43.284 67.946H143.284V167.946H43.284z"
        ></path>
        <path
          fill="#4d4d4d"
          strokeWidth="0.357"
          d="M60.298 82.782H126.144V91.428H60.298z"
        ></path>
        <path
          fill="#ececec"
          strokeWidth="0.357"
          d="M60.298 110.034H126.144V118.68H60.298z"
        ></path>
        <path
          fill="#ececec"
          strokeWidth="0.357"
          d="M60.298 137.286H126.144V145.93200000000002H60.298z"
        ></path>
        <path
          fill="#ececec"
          strokeWidth="0.357"
          d="M60.298 96.408H126.144V105.054H60.298z"
        ></path>
        <path
          fill="#ececec"
          strokeWidth="0.357"
          d="M60.298 123.66H126.144V132.30599999999998H60.298z"
        ></path>
        <g stroke="#000" transform="translate(-1.264 -13.26)">
          <path
            fill="none"
            strokeDasharray="none"
            strokeLinecap="butt"
            strokeLinejoin="miter"
            strokeMiterlimit="4"
            strokeOpacity="1"
            strokeWidth="0.965"
            d="M56.754 100.22c-.685.063-1.371.125-2.214 1.497-.842 1.373-1.84 4.053-2.338 6.86-.499 2.806-.499 5.737.028 8.94.528 3.204 1.593 6.713 2.622 8.46 1.03 1.745 2.027 1.745 3.025 1.745"
          ></path>
          <use
            width="100%"
            height="100%"
            x="0"
            y="0"
            fill="#000"
            transform="matrix(.23258 .1546 -.16788 .25257 54.302 92.696)"
            xlinkHref="#Extract"
          ></use>
          <use
            width="100%"
            height="100%"
            x="0"
            y="0"
            fill="#000"
            transform="matrix(-.18699 .20744 -.22526 -.20305 65.134 127.802)"
            xlinkHref="#Extract"
          ></use>
        </g>
        <path
          fill="#4d4d4d"
          strokeWidth="0.357"
          d="M60.298 81.195H126.144V89.841H60.298z"
        ></path>
      </g>
    </svg>