    <svg
      xmlns="http://www.w3.org/2000/svg"
      width="100mm"
      height="100mm"
      version="1.1"
      viewBox="0 0 100 100"
    >
      <defs>
        <symbol>
          <path strokeWidth="0.529" d="M9.26 9.26h21.167L19.844 27.781z"></path>
        </symbol>
        <symbol>
          <path
            strokeWidth="0.529"
            d="M9.26 30.427l10.584-18.52 10.583 18.52z"
          ></path>
        </symbol>
      </defs>
      <g transform="translate(-43.845 -67.946)">
        <path
          fill="#fea"
          strokeWidth="0.265"
          d="M43.019 67.946H143.019V167.946H43.019z"
        ></path>
        <ellipse
          cx="108.774"
          cy="116.889"
          fill="#b3b3b3"
          fillOpacity="1"
          stroke="#000"
          strokeDasharray="none"
          strokeDashoffset="0"
          strokeMiterlimit="4"
          strokeOpacity="1"
          strokeWidth="0"
          rx="2.432"
          ry="2.713"
        ></ellipse>
        <ellipse
          cx="108.774"
          cy="143.876"
          fill="#b3b3b3"
          fillOpacity="1"
          stroke="#000"
          strokeDasharray="none"
          strokeDashoffset="0"
          strokeMiterlimit="4"
          strokeOpacity="1"
          strokeWidth="0"
          rx="2.432"
          ry="2.713"
        ></ellipse>
        <ellipse
          cx="78.082"
          cy="143.876"
          fill="#b3b3b3"
          fillOpacity="1"
          stroke="#000"
          strokeDasharray="none"
          strokeDashoffset="0"
          strokeMiterlimit="4"
          strokeOpacity="1"
          strokeWidth="0"
          rx="2.432"
          ry="2.713"
        ></ellipse>
        <ellipse
          cx="78.082"
          cy="116.889"
          fill="#b3b3b3"
          fillOpacity="1"
          stroke="#000"
          strokeDasharray="none"
          strokeDashoffset="0"
          strokeMiterlimit="4"
          strokeOpacity="1"
          strokeWidth="0"
          rx="2.432"
          ry="2.713"
        ></ellipse>
        <ellipse
          cx="108.774"
          cy="90.959"
          fill="#b3b3b3"
          fillOpacity="1"
          stroke="#000"
          strokeDasharray="none"
          strokeDashoffset="0"
          strokeMiterlimit="4"
          strokeOpacity="1"
          strokeWidth="0"
          rx="2.432"
          ry="2.713"
        ></ellipse>
        <ellipse
          cx="78.082"
          cy="90.959"
          fill="#b3b3b3"
          fillOpacity="1"
          stroke="#000"
          strokeDasharray="none"
          strokeDashoffset="0"
          strokeMiterlimit="4"
          strokeOpacity="1"
          strokeWidth="0"
          rx="2.432"
          ry="2.713"
        ></ellipse>
        <rect
          width="27.992"
          height="21.08"
          x="49.827"
          y="80.715"
          fill="#fea"
          stroke="#b3b3b3"
          strokeDasharray="none"
          strokeMiterlimit="4"
          strokeWidth="0.85"
          ry="0.664"
        ></rect>
        <path
          fill="#333"
          strokeWidth="0.102"
          d="M52.151 83.979H71.417V86.383H52.151z"
        ></path>
        <path
          fill="#333"
          strokeWidth="0.11"
          d="M52.151 89.27H74.592V91.67399999999999H52.151z"
        ></path>
        <rect
          width="27.992"
          height="21.08"
          x="49.827"
          y="107.282"
          fill="#fea"
          stroke="#b3b3b3"
          strokeDasharray="none"
          strokeMiterlimit="4"
          strokeWidth="0.85"
          ry="0.664"
        ></rect>
        <text
          xmlSpace="preserve"
          style="lineHeight: 1.25, InkscapeFontSpecification: Webdings"
          x="100.533"
          y="129.967"
          fill="#000"
          fillOpacity="1"
          stroke="none"
          strokeWidth="0.265"
          fontFamily="Webdings"
          fontSize="10.583"
          fontStretch="normal"
          fontStyle="normal"
          fontVariant="normal"
          fontWeight="normal"
          letterSpacing="0"
          wordSpacing="0"
        ></text>
        <text
          xmlSpace="preserve"
          style="lineHeight: 1.25, InkscapeFontSpecification: Webdings"
          x="102.03"
          y="123.793"
          fill="#000"
          fillOpacity="1"
          stroke="none"
          strokeWidth="0.265"
          fontFamily="Webdings"
          fontSize="10.583"
          fontStretch="normal"
          fontStyle="normal"
          fontVariant="normal"
          fontWeight="normal"
          letterSpacing="0"
          wordSpacing="0"
        ></text>
        <text
          xmlSpace="preserve"
          style="lineHeight: 1.25, InkscapeFontSpecification: Webdings"
          x="60.87"
          y="120.549"
          fill="#000"
          fillOpacity="1"
          stroke="none"
          strokeWidth="0.265"
          fontFamily="Webdings"
          fontSize="10.583"
          fontStretch="normal"
          fontStyle="normal"
          fontVariant="normal"
          fontWeight="normal"
          letterSpacing="0"
          wordSpacing="0"
        >
          <tspan
            x="60.87"
            y="120.549"
            style="InkscapeFontSpecification:Webdings"
            strokeWidth="0.265"
            fontFamily="Webdings"
            fontStretch="normal"
            fontStyle="normal"
            fontVariant="normal"
            fontWeight="normal"
          >
            X
          </tspan>
        </text>
        <rect
          width="27.992"
          height="21.08"
          x="108.573"
          y="107.282"
          fill="#fea"
          stroke="#b3b3b3"
          strokeDasharray="none"
          strokeMiterlimit="4"
          strokeWidth="0.85"
          ry="0.664"
        ></rect>
        <rect
          width="27.992"
          height="21.08"
          x="108.573"
          y="133.848"
          fill="#fea"
          stroke="#b3b3b3"
          strokeDasharray="none"
          strokeMiterlimit="4"
          strokeWidth="0.85"
          ry="0.664"
        ></rect>
        <rect
          width="27.992"
          height="21.08"
          x="49.827"
          y="133.848"
          fill="#fea"
          stroke="#b3b3b3"
          strokeDasharray="none"
          strokeMiterlimit="4"
          strokeWidth="0.85"
          ry="0.664"
        ></rect>
        <rect
          width="27.992"
          height="21.08"
          x="108.573"
          y="80.715"
          fill="#fea"
          stroke="#b3b3b3"
          strokeDasharray="none"
          strokeMiterlimit="4"
          strokeWidth="0.85"
          ry="0.664"
        ></rect>
        <g
          fill="none"
          stroke="#000"
          transform="matrix(.10583 0 0 .10583 116.732 111.722)"
        >
          <path
            strokeWidth="5"
            d="M50.43 42.669c-9.312.01-16.845 7.544-16.858 16.859.014 9.308 7.546 16.836 16.858 16.854 9.306-.02 16.839-7.547 16.859-16.854-.02-9.315-7.553-16.85-16.86-16.86zm45.042-13.975H78.268l-1.332-15.327a2.634 2.634 0 00-2.635-2.63H26.559a2.63 2.63 0 00-2.631 2.63l-1.333 15.326H19.63v-3.43c0-1.2-.974-2.17-2.174-2.17h-9.73c-1.2 0-2.174.972-2.174 2.17v3.43h-.165a4.956 4.956 0 00-4.958 4.95v53.228a4.958 4.958 0 004.958 4.958h90.084a4.956 4.956 0 004.958-4.958V33.644c0-2.736-2.22-4.95-4.958-4.95zM12.615 49.53a6.16 6.16 0 01-6.157-6.162 6.157 6.157 0 1112.314 0 6.156 6.156 0 01-6.157 6.162zm24.965-32h25.697a2.865 2.865 0 010 5.729H37.58a2.866 2.866 0 01-2.86-2.866 2.867 2.867 0 012.86-2.862zm12.85 66.487c-13.532 0-24.49-10.961-24.497-24.49.006-13.535 10.965-24.497 24.497-24.497 13.528 0 24.489 10.962 24.493 24.497-.004 13.529-10.965 24.49-24.493 24.49z"
          ></path>
          <ellipse cx="50.298" cy="59.638" rx="16.486" ry="16.808"></ellipse>
        </g>
        <path
          fill="#333"
          strokeWidth="0.091"
          d="M111.367 83.58H126.705V85.984H111.367z"
        ></path>
        <path
          fill="#333"
          strokeWidth="0.071"
          d="M111.367 88.101H120.712V90.505H111.367z"
        ></path>
        <path
          fill="#333"
          strokeWidth="0.102"
          d="M52.151 83.979H71.417V86.383H52.151z"
        ></path>
        <path
          fill="#333"
          strokeWidth="0.11"
          d="M52.525 136.791H74.966V139.195H52.525z"
        ></path>
        <path
          fill="#333"
          strokeWidth="0.069"
          d="M52.525 142.083H61.495999999999995V144.487H52.525z"
        ></path>
        <path
          fill="#333"
          strokeWidth="0.082"
          d="M111.263 136.791H123.789V139.195H111.263z"
        ></path>
        <path
          fill="#ccc"
          stroke="#b3b3b3"
          strokeDasharray="none"
          strokeLinecap="butt"
          strokeLinejoin="miter"
          strokeMiterlimit="4"
          strokeOpacity="1"
          strokeWidth="1.4"
          d="M78.83 90.679l28.438 26.192v0"
        ></path>
        <path
          fill="none"
          stroke="#b3b3b3"
          strokeDasharray="none"
          strokeLinecap="butt"
          strokeLinejoin="miter"
          strokeMiterlimit="4"
          strokeOpacity="1"
          strokeWidth="1.4"
          d="M79.46 143.56h27.894"
        ></path>
      </g>
    </svg>