    <svg
      xmlns="http://www.w3.org/2000/svg"
      width="100mm"
      height="100mm"
      version="1.1"
      viewBox="0 0 100 100"
    >
      <g transform="translate(-43.845 -67.946)">
        <path
          fill="#fea"
          strokeWidth="0.265"
          d="M43.845 67.946H143.845V167.946H43.845z"
        ></path>
        <path
          fill="#4d4d4d"
          strokeWidth="0.265"
          d="M56.621 92.477H135.467V96.446H56.621z"
        ></path>
        <path
          fill="#4d4d4d"
          strokeWidth="0.265"
          d="M56.621 92.477H135.467V96.446H56.621z"
        ></path>
        <path
          fill="#4d4d4d"
          strokeWidth="0.242"
          d="M56.621 101.87H122.46700000000001V105.839H56.621z"
        ></path>
        <text
          xmlSpace="preserve"
          style="lineHeight:1.25"
          x="124.09"
          y="105.706"
          fill="#000"
          fillOpacity="1"
          stroke="none"
          strokeWidth="0.265"
          fontFamily="sans-serif"
          fontSize="10.583"
          fontStyle="normal"
          fontWeight="normal"
          letterSpacing="0"
          wordSpacing="0"
        >
          <tspan
            x="124.09"
            y="105.706"
            style={{}}
            strokeWidth="0.265"
            fontFamily="sans-serif"
            fontSize="6.35"
            fontStretch="normal"
            fontStyle="normal"
            fontVariant="normal"
            fontWeight="bold"
          >
            ?
          </tspan>
        </text>
        <path
          fill="#ececec"
          strokeWidth="0.228"
          d="M64.558 127.27H123.10400000000001V131.239H64.558z"
        ></path>
        <path
          fill="#ececec"
          strokeWidth="0.228"
          d="M64.558 119.068H123.10400000000001V123.03699999999999H64.558z"
        ></path>
        <path
          fill="#ececec"
          strokeWidth="0.228"
          d="M64.558 135.472H123.10400000000001V139.441H64.558z"
        ></path>
        <path
          fill="#ececec"
          strokeWidth="0.06"
          d="M-61.78 127.27H-57.752V131.239H-61.78z"
          transform="scale(-1 1)"
        ></path>
        <path
          fill="#ececec"
          strokeWidth="0.228"
          d="M64.558 143.674H123.10400000000001V147.643H64.558z"
        ></path>
        <path
          fill="#ececec"
          strokeWidth="0.06"
          d="M-61.78 119.068H-57.752V123.03699999999999H-61.78z"
          transform="scale(-1 1)"
        ></path>
        <path
          fill="#ececec"
          strokeWidth="0.06"
          d="M-61.78 135.472H-57.752V139.441H-61.78z"
          transform="scale(-1 1)"
        ></path>
        <path
          fill="#ececec"
          strokeWidth="0.06"
          d="M-61.78 143.674H-57.752V147.643H-61.78z"
          transform="scale(-1 1)"
        ></path>
        <g
          fill="none"
          stroke="#000"
          strokeDasharray="none"
          strokeLinecap="butt"
          strokeLinejoin="miter"
          strokeMiterlimit="4"
          strokeOpacity="1"
          strokeWidth="0.465"
        >
          <path d="M58.5 136.369l2.317 2.37"></path>
          <path d="M60.817 136.369l-2.318 2.37"></path>
        </g>
        <g
          fill="none"
          stroke="#000"
          strokeDasharray="none"
          strokeLinecap="butt"
          strokeLinejoin="miter"
          strokeMiterlimit="4"
          strokeOpacity="1"
          strokeWidth="0.465"
          transform="translate(0 -16.404)"
        >
          <path d="M58.5 136.369l2.317 2.37"></path>
          <path d="M60.817 136.369l-2.318 2.37"></path>
        </g>
        <g
          fill="none"
          stroke="#000"
          strokeDasharray="none"
          strokeLinecap="butt"
          strokeLinejoin="miter"
          strokeMiterlimit="4"
          strokeOpacity="1"
          strokeWidth="0.465"
          transform="translate(0 7.938)"
        >
          <path d="M58.5 136.369l2.317 2.37"></path>
          <path d="M60.817 136.369l-2.318 2.37"></path>
        </g>
      </g>
    </svg>